<svg width="1730" height="444" viewBox="0 0 1730 444" fill="none" xmlns="http://www.w3.org/2000/svg">
<rect width="1648" height="431" transform="translate(82)" fill="black"/>
<g clip-path="url(#clip0_75_68)">
<path d="M292.456 56.1103C280.126 57.294 262.173 61.0424 250.829 64.8894C240.867 68.1446 225.478 74.9509 221.237 77.8115C219.856 78.7979 218.376 79.5871 218.08 79.5871C216.305 79.5871 195.393 94.7779 187.501 101.782C166.589 120.523 148.439 147.157 139.66 172.508C125.85 212.359 128.612 255.663 147.551 293.936C161.263 321.852 187.896 349.471 212.754 361.703C215.121 362.887 218.573 364.662 220.448 365.649C225.182 368.115 244.023 374.033 252.506 375.71C263.751 377.782 291.864 377.288 303.406 374.724C321.062 370.877 340.889 361.999 354.601 351.74C370.975 339.607 387.448 319.78 395.438 302.419C402.541 287.031 406.782 263.85 405.401 248.265C401.949 210.189 379.557 176.552 346.216 159.586C330.631 151.694 310.902 148.834 293.344 152.089C262.173 157.711 235.54 180.892 228.24 208.709C225.38 219.955 226.07 237.809 229.819 244.911C230.608 246.489 231.298 248.265 231.298 248.857C231.298 251.323 241.162 264.837 246.391 269.67C253.394 275.983 264.047 281.408 271.347 282.395C284.96 284.072 299.065 277.167 308.535 264.047C313.368 257.34 314.651 241.458 311.198 232.285C310.113 229.424 309.225 226.662 309.225 226.268C309.225 224.788 317.314 230.016 320.668 233.666C330.631 244.714 332.406 260.694 325.107 273.418C315.538 290.089 298.375 300.348 278.646 301.334C262.37 302.025 251.125 298.079 236.921 286.834C218.179 271.939 207.624 250.336 207.032 225.577C206.539 207.23 211.57 191.644 222.914 175.763C229.917 165.899 233.863 161.756 242.938 154.456C255.761 144.099 266.809 138.772 284.466 134.136C301.433 129.697 324.318 130.881 341.975 136.997C350.162 139.759 363.577 146.762 371.37 152.286C379.853 158.303 395.34 173.987 401.456 182.668C417.534 205.75 425.426 232.581 424.439 261.384C423.65 281.606 419.902 296.303 410.629 314.651C404.908 326.093 402.935 332.505 402.935 339.41C402.935 354.601 411.123 367.523 424.538 373.935C430.456 376.697 431.936 376.992 440.419 376.992C447.62 376.992 450.875 376.499 454.229 375.118C465.474 370.186 471.985 362.788 479.975 346.019C499.407 305.181 504.832 264.935 497.04 218.475C495.659 210.09 489.937 189.671 487.175 183.358C486.386 181.681 485.104 178.525 484.216 176.453C479.975 166.491 471.097 150.116 465.376 141.731C456.301 128.612 451.664 123.088 438.446 110.166C411.32 83.4341 378.275 65.8759 341.284 58.4777C334.182 57.0967 308.732 54.7293 303.8 55.0252C302.715 55.1239 297.586 55.6171 292.456 56.1103ZM333.195 60.3519C350.458 62.9166 373.935 69.9202 381.234 74.5563C382.516 75.4441 383.601 75.9373 383.7 75.7401C383.897 73.9645 409.15 89.5499 421.874 99.2168C429.273 104.839 452.256 128.809 457.977 136.898C479.876 167.674 492.108 198.648 496.349 233.962C497.237 242.05 497.336 269.571 496.448 278.844C495.659 286.834 491.022 309.916 489.74 312.185C489.247 313.073 488.162 316.426 487.274 319.583C485.499 325.995 483.23 331.223 475.24 347.696C468.927 360.717 463.501 366.832 454.722 371.074C449.593 373.54 447.719 373.935 440.419 373.935C434.007 373.935 430.95 373.441 427.497 371.764C414.279 365.649 406.684 354.601 406.19 340.988C405.895 332.505 406.486 330.729 413.687 316.032C422.762 297.388 426.412 282.888 427.3 262.962C428.385 236.625 423.551 215.318 411.32 192.532C402.245 175.664 385.278 157.514 367.917 145.973C351.74 135.221 327.376 127.922 308.239 127.922C302.518 127.922 287.82 130.092 281.112 131.867C278.942 132.459 276.476 133.051 275.687 133.248C273.714 133.741 264.146 137.49 259.904 139.463C253.197 142.521 238.795 153.075 231.791 160.178C217.784 174.185 209.696 188.586 205.651 206.835C202.692 219.659 203.679 239.683 207.624 249.744C208.019 250.829 209.4 254.282 210.682 257.537C216.601 273.024 232.186 290.089 247.377 297.783C258.523 303.406 273.813 305.872 285.453 304.096C304.293 301.038 321.95 287.919 329.743 271.15C331.913 266.415 332.406 264.146 332.406 256.649C332.406 248.561 332.11 247.081 329.25 241.36C324.219 231.101 314.256 222.421 310.015 224.689C307.154 226.268 306.858 228.043 308.732 233.962C310.902 240.768 310.31 252.013 307.45 258.425C304.984 263.949 296.303 272.925 290.483 275.885C284.762 278.745 271.248 279.732 265.231 277.66C259.017 275.49 249.054 268.289 243.629 261.976C233.172 250.139 228.438 235.836 229.621 219.659C231.397 193.223 254.972 166.293 283.677 157.613C304.984 151.201 323.923 152.582 343.257 161.854C368.213 173.79 388.139 196.774 397.115 223.802C404.514 246.095 403.823 271.347 395.143 295.12C393.071 300.841 386.955 311.79 381.333 319.682C366.24 341.087 347.498 355.686 321.556 365.945C306.661 371.863 294.626 373.935 275.687 373.935C251.717 373.935 235.639 370.088 216.009 359.73C195.195 348.682 180.498 336.155 164.222 315.637C155.64 304.787 142.816 278.351 139.364 264.047C135.32 247.278 134.136 238.598 134.136 225.084C134.136 215.022 135.32 199.141 136.207 197.76C136.503 197.267 136.898 195.689 137.194 194.209C139.463 180.399 146.762 160.967 155.147 146.565C173.494 114.802 206.638 85.6042 238.696 72.8794C241.952 71.5971 245.996 69.9202 247.574 69.2297C254.085 66.369 273.32 61.6342 284.072 60.2533C286.834 59.9573 289.201 59.4641 289.398 59.2668C290.582 58.1818 324.219 59.0695 333.195 60.3519Z" fill="#FF4137"/>
<path d="M333.195 60.3519C350.458 62.9166 373.935 69.9202 381.234 74.5563C382.516 75.4441 383.601 75.9373 383.7 75.7401C383.897 73.9645 409.15 89.5499 421.874 99.2168C429.273 104.839 452.256 128.809 457.977 136.898C479.876 167.674 492.108 198.648 496.349 233.962C497.237 242.05 497.336 269.571 496.448 278.844C495.659 286.834 491.022 309.916 489.74 312.185C489.247 313.073 488.162 316.426 487.274 319.583C485.499 325.995 483.23 331.223 475.24 347.696C468.927 360.717 463.501 366.832 454.722 371.074C449.593 373.54 447.719 373.935 440.419 373.935C434.007 373.935 430.95 373.441 427.497 371.764C414.279 365.649 406.684 354.601 406.19 340.988C405.895 332.505 406.486 330.729 413.687 316.032C422.762 297.388 426.412 282.888 427.3 262.962C428.385 236.625 423.551 215.318 411.32 192.532C402.245 175.664 385.278 157.514 367.917 145.973C351.74 135.221 327.376 127.922 308.239 127.922C302.518 127.922 287.82 130.092 281.112 131.867C278.942 132.459 276.476 133.051 275.687 133.248C273.714 133.741 264.146 137.49 259.904 139.463C253.197 142.521 238.795 153.075 231.791 160.178C217.784 174.185 209.696 188.586 205.651 206.835C202.692 219.659 203.679 239.683 207.624 249.744C208.019 250.829 209.4 254.282 210.682 257.537C216.601 273.024 232.186 290.089 247.377 297.783C258.523 303.406 273.813 305.872 285.453 304.096C304.293 301.038 321.95 287.919 329.743 271.15C331.913 266.415 332.406 264.146 332.406 256.649C332.406 248.561 332.11 247.081 329.25 241.36C324.219 231.101 314.256 222.421 310.015 224.689C307.154 226.268 306.858 228.043 308.732 233.962C310.902 240.768 310.31 252.013 307.45 258.425C304.984 263.949 296.303 272.925 290.483 275.885C284.762 278.745 271.248 279.732 265.231 277.66C259.017 275.49 249.054 268.289 243.629 261.976C233.172 250.139 228.438 235.836 229.621 219.659C231.397 193.223 254.972 166.293 283.677 157.613C304.984 151.201 323.923 152.582 343.257 161.854C368.213 173.79 388.139 196.774 397.115 223.802C404.514 246.095 403.823 271.347 395.143 295.12C393.071 300.841 386.955 311.79 381.333 319.682C366.24 341.087 347.498 355.686 321.556 365.945C306.661 371.863 294.626 373.935 275.687 373.935C251.717 373.935 235.639 370.088 216.009 359.73C195.195 348.682 180.498 336.155 164.222 315.637C155.64 304.787 142.816 278.351 139.364 264.047C135.32 247.278 134.136 238.598 134.136 225.084C134.136 215.022 135.32 199.141 136.207 197.76C136.503 197.267 136.898 195.689 137.194 194.209C139.463 180.399 146.762 160.967 155.147 146.565C173.494 114.802 206.638 85.6042 238.696 72.8794C241.952 71.5971 245.996 69.9202 247.574 69.2297C254.085 66.369 273.32 61.6342 284.072 60.2533C286.834 59.9573 289.201 59.4641 289.398 59.2668C290.582 58.1818 324.219 59.0695 333.195 60.3519Z" fill="#FF4137"/>
</g>
<path d="M651.307 331H573.963V112.818H651.946C673.892 112.818 692.784 117.186 708.622 125.922C724.46 134.587 736.641 147.051 745.163 163.315C753.757 179.58 758.054 199.04 758.054 221.696C758.054 244.423 753.757 263.955 745.163 280.29C736.641 296.625 724.389 309.161 708.409 317.896C692.5 326.632 673.466 331 651.307 331ZM620.092 291.476H649.389C663.026 291.476 674.496 289.061 683.8 284.232C693.175 279.331 700.206 271.767 704.893 261.54C709.652 251.241 712.031 237.96 712.031 221.696C712.031 205.574 709.652 192.399 704.893 182.172C700.206 171.945 693.21 164.416 683.906 159.587C674.602 154.757 663.132 152.342 649.496 152.342H620.092V291.476ZM865.946 334.196C849.114 334.196 834.625 330.787 822.48 323.969C810.407 317.08 801.103 307.349 794.569 294.778C788.034 282.136 784.767 267.186 784.767 249.928C784.767 233.095 788.034 218.322 794.569 205.609C801.103 192.896 810.3 182.989 822.161 175.886C834.093 168.784 848.084 165.233 864.135 165.233C874.931 165.233 884.98 166.973 894.284 170.453C903.659 173.862 911.827 179.011 918.787 185.901C925.819 192.79 931.287 201.455 935.194 211.895C939.1 222.264 941.053 234.409 941.053 248.33V260.794H802.878V232.669H898.333C898.333 226.135 896.912 220.347 894.071 215.304C891.23 210.261 887.289 206.32 882.246 203.479C877.275 200.567 871.486 199.111 864.881 199.111C857.992 199.111 851.884 200.709 846.557 203.905C841.301 207.03 837.182 211.256 834.199 216.582C831.216 221.838 829.689 227.697 829.618 234.161V260.901C829.618 268.997 831.11 275.993 834.093 281.888C837.147 287.783 841.444 292.328 846.983 295.524C852.523 298.72 859.093 300.318 866.692 300.318C871.735 300.318 876.351 299.608 880.542 298.188C884.732 296.767 888.319 294.636 891.301 291.795C894.284 288.955 896.557 285.474 898.12 281.355L940.094 284.125C937.963 294.21 933.596 303.017 926.99 310.545C920.456 318.003 912.005 323.827 901.635 328.017C891.337 332.136 879.441 334.196 865.946 334.196ZM1044.6 334.196C1027.84 334.196 1013.43 330.645 1001.35 323.543C989.348 316.369 980.115 306.426 973.652 293.713C967.26 281 964.064 266.369 964.064 249.821C964.064 233.06 967.296 218.358 973.759 205.716C980.293 193.003 989.561 183.095 1001.56 175.993C1013.57 168.82 1027.84 165.233 1044.39 165.233C1058.67 165.233 1071.17 167.825 1081.89 173.01C1092.62 178.195 1101.1 185.474 1107.35 194.849C1113.6 204.224 1117.05 215.233 1117.69 227.875H1074.86C1073.65 219.707 1070.46 213.138 1065.27 208.166C1060.16 203.124 1053.45 200.602 1045.14 200.602C1038.11 200.602 1031.96 202.52 1026.71 206.355C1021.52 210.119 1017.47 215.624 1014.56 222.868C1011.65 230.112 1010.19 238.884 1010.19 249.182C1010.19 259.622 1011.61 268.5 1014.45 275.815C1017.37 283.131 1021.45 288.706 1026.71 292.541C1031.96 296.376 1038.11 298.294 1045.14 298.294C1050.32 298.294 1054.97 297.229 1059.09 295.098C1063.28 292.967 1066.73 289.878 1069.43 285.83C1072.2 281.71 1074.01 276.774 1074.86 271.021H1117.69C1116.98 283.521 1113.57 294.53 1107.46 304.047C1101.42 313.493 1093.08 320.879 1082.42 326.206C1071.77 331.533 1059.16 334.196 1044.6 334.196ZM1220.68 334.196C1204.13 334.196 1189.82 330.68 1177.75 323.649C1165.74 316.547 1156.47 306.675 1149.94 294.033C1143.41 281.32 1140.14 266.582 1140.14 249.821C1140.14 232.918 1143.41 218.145 1149.94 205.503C1156.47 192.79 1165.74 182.918 1177.75 175.886C1189.82 168.784 1204.13 165.233 1220.68 165.233C1237.23 165.233 1251.5 168.784 1263.5 175.886C1275.58 182.918 1284.88 192.79 1291.42 205.503C1297.95 218.145 1301.22 232.918 1301.22 249.821C1301.22 266.582 1297.95 281.32 1291.42 294.033C1284.88 306.675 1275.58 316.547 1263.5 323.649C1251.5 330.68 1237.23 334.196 1220.68 334.196ZM1220.89 299.04C1228.42 299.04 1234.71 296.909 1239.75 292.648C1244.79 288.315 1248.59 282.42 1251.15 274.963C1253.77 267.506 1255.09 259.018 1255.09 249.501C1255.09 239.984 1253.77 231.497 1251.15 224.04C1248.59 216.582 1244.79 210.687 1239.75 206.355C1234.71 202.023 1228.42 199.857 1220.89 199.857C1213.29 199.857 1206.9 202.023 1201.72 206.355C1196.6 210.687 1192.73 216.582 1190.1 224.04C1187.55 231.497 1186.27 239.984 1186.27 249.501C1186.27 259.018 1187.55 267.506 1190.1 274.963C1192.73 282.42 1196.6 288.315 1201.72 292.648C1206.9 296.909 1213.29 299.04 1220.89 299.04ZM1391.03 333.663C1378.6 333.663 1367.34 330.467 1357.25 324.075C1347.24 317.612 1339.29 308.131 1333.39 295.631C1327.57 283.06 1324.66 267.648 1324.66 249.395C1324.66 230.645 1327.67 215.055 1333.71 202.626C1339.75 190.126 1347.77 180.787 1357.79 174.608C1367.87 168.358 1378.92 165.233 1390.92 165.233C1400.08 165.233 1407.72 166.795 1413.82 169.92C1420 172.974 1424.98 176.81 1428.74 181.426C1432.57 185.972 1435.49 190.446 1437.48 194.849H1438.86V112.818H1484.14V331H1439.39V304.793H1437.48C1435.34 309.338 1432.33 313.848 1428.42 318.322C1424.58 322.726 1419.58 326.384 1413.4 329.295C1407.29 332.207 1399.83 333.663 1391.03 333.663ZM1405.41 297.548C1412.72 297.548 1418.9 295.56 1423.95 291.582C1429.06 287.534 1432.97 281.888 1435.66 274.643C1438.43 267.399 1439.82 258.912 1439.82 249.182C1439.82 239.452 1438.47 231 1435.77 223.827C1433.07 216.653 1429.17 211.114 1424.05 207.207C1418.94 203.301 1412.72 201.348 1405.41 201.348C1397.95 201.348 1391.67 203.372 1386.55 207.42C1381.44 211.469 1377.57 217.08 1374.94 224.253C1372.31 231.426 1371 239.736 1371 249.182C1371 258.699 1372.31 267.115 1374.94 274.43C1377.64 281.675 1381.51 287.357 1386.55 291.476C1391.67 295.524 1397.95 297.548 1405.41 297.548ZM1596.02 334.196C1579.19 334.196 1564.7 330.787 1552.56 323.969C1540.48 317.08 1531.18 307.349 1524.65 294.778C1518.11 282.136 1514.85 267.186 1514.85 249.928C1514.85 233.095 1518.11 218.322 1524.65 205.609C1531.18 192.896 1540.38 182.989 1552.24 175.886C1564.17 168.784 1578.16 165.233 1594.21 165.233C1605.01 165.233 1615.06 166.973 1624.36 170.453C1633.74 173.862 1641.91 179.011 1648.87 185.901C1655.9 192.79 1661.37 201.455 1665.27 211.895C1669.18 222.264 1671.13 234.409 1671.13 248.33V260.794H1532.96V232.669H1628.41C1628.41 226.135 1626.99 220.347 1624.15 215.304C1621.31 210.261 1617.37 206.32 1612.32 203.479C1607.35 200.567 1601.56 199.111 1594.96 199.111C1588.07 199.111 1581.96 200.709 1576.64 203.905C1571.38 207.03 1567.26 211.256 1564.28 216.582C1561.29 221.838 1559.77 227.697 1559.7 234.161V260.901C1559.7 268.997 1561.19 275.993 1564.17 281.888C1567.22 287.783 1571.52 292.328 1577.06 295.524C1582.6 298.72 1589.17 300.318 1596.77 300.318C1601.81 300.318 1606.43 299.608 1610.62 298.188C1614.81 296.767 1618.4 294.636 1621.38 291.795C1624.36 288.955 1626.64 285.474 1628.2 281.355L1670.17 284.125C1668.04 294.21 1663.67 303.017 1657.07 310.545C1650.53 318.003 1642.08 323.827 1631.71 328.017C1621.42 332.136 1609.52 334.196 1596.02 334.196Z" fill="#FCFBFB"/>
<defs>
<clipPath id="clip0_75_68">
<rect width="500" height="436" fill="white" transform="translate(0 8)"/>
</clipPath>
</defs>
</svg>
