<svg width="1730" height="445" viewBox="0 0 1730 445" fill="none" xmlns="http://www.w3.org/2000/svg">
<rect width="1648" height="431" transform="translate(82 0.5)" fill="white"/>
<g clip-path="url(#clip0_75_58)">
<path d="M292.456 56.6103C280.126 57.794 262.173 61.5424 250.829 65.3894C240.867 68.6446 225.478 75.4509 221.237 78.3115C219.856 79.2979 218.376 80.0871 218.08 80.0871C216.305 80.0871 195.393 95.2779 187.501 102.282C166.589 121.023 148.439 147.657 139.66 173.008C125.85 212.859 128.612 256.163 147.551 294.436C161.263 322.352 187.896 349.971 212.754 362.203C215.121 363.387 218.573 365.162 220.448 366.149C225.182 368.615 244.023 374.533 252.506 376.21C263.751 378.282 291.864 377.788 303.406 375.224C321.062 371.377 340.889 362.499 354.601 352.24C370.975 340.107 387.448 320.28 395.438 302.919C402.541 287.531 406.782 264.35 405.401 248.765C401.949 210.689 379.557 177.052 346.216 160.086C330.631 152.194 310.902 149.334 293.344 152.589C262.173 158.211 235.54 181.392 228.24 209.209C225.38 220.455 226.07 238.309 229.819 245.411C230.608 246.989 231.298 248.765 231.298 249.357C231.298 251.823 241.162 265.337 246.391 270.17C253.394 276.483 264.047 281.908 271.347 282.895C284.96 284.572 299.065 277.667 308.535 264.547C313.368 257.84 314.651 241.958 311.198 232.785C310.113 229.924 309.225 227.162 309.225 226.768C309.225 225.288 317.314 230.516 320.668 234.166C330.631 245.214 332.406 261.194 325.107 273.918C315.538 290.589 298.375 300.848 278.646 301.834C262.37 302.525 251.125 298.579 236.921 287.334C218.179 272.439 207.624 250.836 207.032 226.077C206.539 207.73 211.57 192.144 222.914 176.263C229.917 166.399 233.863 162.256 242.938 154.956C255.761 144.599 266.809 139.272 284.466 134.636C301.433 130.197 324.318 131.381 341.975 137.497C350.162 140.259 363.577 147.262 371.37 152.786C379.853 158.803 395.34 174.487 401.456 183.168C417.534 206.25 425.426 233.081 424.439 261.884C423.65 282.106 419.902 296.803 410.629 315.151C404.908 326.593 402.935 333.005 402.935 339.91C402.935 355.101 411.123 368.023 424.538 374.435C430.456 377.197 431.936 377.492 440.419 377.492C447.62 377.492 450.875 376.999 454.229 375.618C465.474 370.686 471.985 363.288 479.975 346.519C499.407 305.681 504.832 265.435 497.04 218.975C495.659 210.59 489.937 190.171 487.175 183.858C486.386 182.181 485.104 179.025 484.216 176.953C479.975 166.991 471.097 150.616 465.376 142.231C456.301 129.112 451.664 123.588 438.446 110.666C411.32 83.9341 378.275 66.3759 341.284 58.9777C334.182 57.5967 308.732 55.2293 303.8 55.5252C302.715 55.6239 297.586 56.1171 292.456 56.6103ZM333.195 60.8519C350.458 63.4166 373.935 70.4202 381.234 75.0563C382.516 75.9441 383.601 76.4373 383.7 76.2401C383.897 74.4645 409.15 90.0499 421.874 99.7168C429.273 105.339 452.256 129.309 457.977 137.398C479.876 168.174 492.108 199.148 496.349 234.462C497.237 242.55 497.336 270.071 496.448 279.344C495.659 287.334 491.022 310.416 489.74 312.685C489.247 313.573 488.162 316.926 487.274 320.083C485.499 326.495 483.23 331.723 475.24 348.196C468.927 361.217 463.501 367.332 454.722 371.574C449.593 374.04 447.719 374.435 440.419 374.435C434.007 374.435 430.95 373.941 427.497 372.264C414.279 366.149 406.684 355.101 406.19 341.488C405.895 333.005 406.486 331.229 413.687 316.532C422.762 297.888 426.412 283.388 427.3 263.462C428.385 237.125 423.551 215.818 411.32 193.032C402.245 176.164 385.278 158.014 367.917 146.473C351.74 135.721 327.376 128.422 308.239 128.422C302.518 128.422 287.82 130.592 281.112 132.367C278.942 132.959 276.476 133.551 275.687 133.748C273.714 134.241 264.146 137.99 259.904 139.963C253.197 143.021 238.795 153.575 231.791 160.678C217.784 174.685 209.696 189.086 205.651 207.335C202.692 220.159 203.679 240.183 207.624 250.244C208.019 251.329 209.4 254.782 210.682 258.037C216.601 273.524 232.186 290.589 247.377 298.283C258.523 303.906 273.813 306.372 285.453 304.596C304.293 301.538 321.95 288.419 329.743 271.65C331.913 266.915 332.406 264.646 332.406 257.149C332.406 249.061 332.11 247.581 329.25 241.86C324.219 231.601 314.256 222.921 310.015 225.189C307.154 226.768 306.858 228.543 308.732 234.462C310.902 241.268 310.31 252.513 307.45 258.925C304.984 264.449 296.303 273.425 290.483 276.385C284.762 279.245 271.248 280.232 265.231 278.16C259.017 275.99 249.054 268.789 243.629 262.476C233.172 250.639 228.438 236.336 229.621 220.159C231.397 193.723 254.972 166.793 283.677 158.113C304.984 151.701 323.923 153.082 343.257 162.354C368.213 174.29 388.139 197.274 397.115 224.302C404.514 246.595 403.823 271.847 395.143 295.62C393.071 301.341 386.955 312.29 381.333 320.182C366.24 341.587 347.498 356.186 321.556 366.445C306.661 372.363 294.626 374.435 275.687 374.435C251.717 374.435 235.639 370.588 216.009 360.23C195.195 349.182 180.498 336.655 164.222 316.137C155.64 305.287 142.816 278.851 139.364 264.547C135.32 247.778 134.136 239.098 134.136 225.584C134.136 215.522 135.32 199.641 136.207 198.26C136.503 197.767 136.898 196.189 137.194 194.709C139.463 180.899 146.762 161.467 155.147 147.065C173.494 115.302 206.638 86.1042 238.696 73.3794C241.952 72.0971 245.996 70.4202 247.574 69.7297C254.085 66.869 273.32 62.1342 284.072 60.7533C286.834 60.4573 289.201 59.9641 289.398 59.7668C290.582 58.6818 324.219 59.5695 333.195 60.8519Z" fill="#FF4137"/>
<path d="M333.195 60.8519C350.458 63.4166 373.935 70.4202 381.234 75.0563C382.516 75.9441 383.601 76.4373 383.7 76.2401C383.897 74.4645 409.15 90.0499 421.874 99.7168C429.273 105.339 452.256 129.309 457.977 137.398C479.876 168.174 492.108 199.148 496.349 234.462C497.237 242.55 497.336 270.071 496.448 279.344C495.659 287.334 491.022 310.416 489.74 312.685C489.247 313.573 488.162 316.926 487.274 320.083C485.499 326.495 483.23 331.723 475.24 348.196C468.927 361.217 463.501 367.332 454.722 371.574C449.593 374.04 447.719 374.435 440.419 374.435C434.007 374.435 430.95 373.941 427.497 372.264C414.279 366.149 406.684 355.101 406.19 341.488C405.895 333.005 406.486 331.229 413.687 316.532C422.762 297.888 426.412 283.388 427.3 263.462C428.385 237.125 423.551 215.818 411.32 193.032C402.245 176.164 385.278 158.014 367.917 146.473C351.74 135.721 327.376 128.422 308.239 128.422C302.518 128.422 287.82 130.592 281.112 132.367C278.942 132.959 276.476 133.551 275.687 133.748C273.714 134.241 264.146 137.99 259.904 139.963C253.197 143.021 238.795 153.575 231.791 160.678C217.784 174.685 209.696 189.086 205.651 207.335C202.692 220.159 203.679 240.183 207.624 250.244C208.019 251.329 209.4 254.782 210.682 258.037C216.601 273.524 232.186 290.589 247.377 298.283C258.523 303.906 273.813 306.372 285.453 304.596C304.293 301.538 321.95 288.419 329.743 271.65C331.913 266.915 332.406 264.646 332.406 257.149C332.406 249.061 332.11 247.581 329.25 241.86C324.219 231.601 314.256 222.921 310.015 225.189C307.154 226.768 306.858 228.543 308.732 234.462C310.902 241.268 310.31 252.513 307.45 258.925C304.984 264.449 296.303 273.425 290.483 276.385C284.762 279.245 271.248 280.232 265.231 278.16C259.017 275.99 249.054 268.789 243.629 262.476C233.172 250.639 228.438 236.336 229.621 220.159C231.397 193.723 254.972 166.793 283.677 158.113C304.984 151.701 323.923 153.082 343.257 162.354C368.213 174.29 388.139 197.274 397.115 224.302C404.514 246.595 403.823 271.847 395.143 295.62C393.071 301.341 386.955 312.29 381.333 320.182C366.24 341.587 347.498 356.186 321.556 366.445C306.661 372.363 294.626 374.435 275.687 374.435C251.717 374.435 235.639 370.588 216.009 360.23C195.195 349.182 180.498 336.655 164.222 316.137C155.64 305.287 142.816 278.851 139.364 264.547C135.32 247.778 134.136 239.098 134.136 225.584C134.136 215.522 135.32 199.641 136.207 198.26C136.503 197.767 136.898 196.189 137.194 194.709C139.463 180.899 146.762 161.467 155.147 147.065C173.494 115.302 206.638 86.1042 238.696 73.3794C241.952 72.0971 245.996 70.4202 247.574 69.7297C254.085 66.869 273.32 62.1342 284.072 60.7533C286.834 60.4573 289.201 59.9641 289.398 59.7668C290.582 58.6818 324.219 59.5695 333.195 60.8519Z" fill="#FF4137"/>
</g>
<path d="M651.307 326.5H573.963V108.318H651.946C673.892 108.318 692.784 112.686 708.622 121.422C724.46 130.087 736.641 142.551 745.163 158.815C753.757 175.08 758.054 194.54 758.054 217.196C758.054 239.923 753.757 259.455 745.163 275.79C736.641 292.125 724.389 304.661 708.409 313.396C692.5 322.132 673.466 326.5 651.307 326.5ZM620.092 286.976H649.389C663.026 286.976 674.496 284.561 683.8 279.732C693.175 274.831 700.206 267.267 704.893 257.04C709.652 246.741 712.031 233.46 712.031 217.196C712.031 201.074 709.652 187.899 704.893 177.672C700.206 167.445 693.21 159.916 683.906 155.087C674.602 150.257 663.132 147.842 649.496 147.842H620.092V286.976ZM865.946 329.696C849.114 329.696 834.625 326.287 822.48 319.469C810.407 312.58 801.103 302.849 794.569 290.278C788.034 277.636 784.767 262.686 784.767 245.428C784.767 228.595 788.034 213.822 794.569 201.109C801.103 188.396 810.3 178.489 822.161 171.386C834.093 164.284 848.084 160.733 864.135 160.733C874.931 160.733 884.98 162.473 894.284 165.953C903.659 169.362 911.827 174.511 918.787 181.401C925.819 188.29 931.287 196.955 935.194 207.395C939.1 217.764 941.053 229.909 941.053 243.83V256.294H802.878V228.169H898.333C898.333 221.635 896.912 215.847 894.071 210.804C891.23 205.761 887.289 201.82 882.246 198.979C877.275 196.067 871.486 194.611 864.881 194.611C857.992 194.611 851.884 196.209 846.557 199.405C841.301 202.53 837.182 206.756 834.199 212.082C831.216 217.338 829.689 223.197 829.618 229.661V256.401C829.618 264.497 831.11 271.493 834.093 277.388C837.147 283.283 841.444 287.828 846.983 291.024C852.523 294.22 859.093 295.818 866.692 295.818C871.735 295.818 876.351 295.108 880.542 293.688C884.732 292.267 888.319 290.136 891.301 287.295C894.284 284.455 896.557 280.974 898.12 276.855L940.094 279.625C937.963 289.71 933.596 298.517 926.99 306.045C920.456 313.503 912.005 319.327 901.635 323.517C891.337 327.636 879.441 329.696 865.946 329.696ZM1044.6 329.696C1027.84 329.696 1013.43 326.145 1001.35 319.043C989.348 311.869 980.115 301.926 973.652 289.213C967.26 276.5 964.064 261.869 964.064 245.321C964.064 228.56 967.296 213.858 973.759 201.216C980.293 188.503 989.561 178.595 1001.56 171.493C1013.57 164.32 1027.84 160.733 1044.39 160.733C1058.67 160.733 1071.17 163.325 1081.89 168.51C1092.62 173.695 1101.1 180.974 1107.35 190.349C1113.6 199.724 1117.05 210.733 1117.69 223.375H1074.86C1073.65 215.207 1070.46 208.638 1065.27 203.666C1060.16 198.624 1053.45 196.102 1045.14 196.102C1038.11 196.102 1031.96 198.02 1026.71 201.855C1021.52 205.619 1017.47 211.124 1014.56 218.368C1011.65 225.612 1010.19 234.384 1010.19 244.682C1010.19 255.122 1011.61 264 1014.45 271.315C1017.37 278.631 1021.45 284.206 1026.71 288.041C1031.96 291.876 1038.11 293.794 1045.14 293.794C1050.32 293.794 1054.97 292.729 1059.09 290.598C1063.28 288.467 1066.73 285.378 1069.43 281.33C1072.2 277.21 1074.01 272.274 1074.86 266.521H1117.69C1116.98 279.021 1113.57 290.03 1107.46 299.547C1101.42 308.993 1093.08 316.379 1082.42 321.706C1071.77 327.033 1059.16 329.696 1044.6 329.696ZM1220.68 329.696C1204.13 329.696 1189.82 326.18 1177.75 319.149C1165.74 312.047 1156.47 302.175 1149.94 289.533C1143.41 276.82 1140.14 262.082 1140.14 245.321C1140.14 228.418 1143.41 213.645 1149.94 201.003C1156.47 188.29 1165.74 178.418 1177.75 171.386C1189.82 164.284 1204.13 160.733 1220.68 160.733C1237.23 160.733 1251.5 164.284 1263.5 171.386C1275.58 178.418 1284.88 188.29 1291.42 201.003C1297.95 213.645 1301.22 228.418 1301.22 245.321C1301.22 262.082 1297.95 276.82 1291.42 289.533C1284.88 302.175 1275.58 312.047 1263.5 319.149C1251.5 326.18 1237.23 329.696 1220.68 329.696ZM1220.89 294.54C1228.42 294.54 1234.71 292.409 1239.75 288.148C1244.79 283.815 1248.59 277.92 1251.15 270.463C1253.77 263.006 1255.09 254.518 1255.09 245.001C1255.09 235.484 1253.77 226.997 1251.15 219.54C1248.59 212.082 1244.79 206.187 1239.75 201.855C1234.71 197.523 1228.42 195.357 1220.89 195.357C1213.29 195.357 1206.9 197.523 1201.72 201.855C1196.6 206.187 1192.73 212.082 1190.1 219.54C1187.55 226.997 1186.27 235.484 1186.27 245.001C1186.27 254.518 1187.55 263.006 1190.1 270.463C1192.73 277.92 1196.6 283.815 1201.72 288.148C1206.9 292.409 1213.29 294.54 1220.89 294.54ZM1391.03 329.163C1378.6 329.163 1367.34 325.967 1357.25 319.575C1347.24 313.112 1339.29 303.631 1333.39 291.131C1327.57 278.56 1324.66 263.148 1324.66 244.895C1324.66 226.145 1327.67 210.555 1333.71 198.126C1339.75 185.626 1347.77 176.287 1357.79 170.108C1367.87 163.858 1378.92 160.733 1390.92 160.733C1400.08 160.733 1407.72 162.295 1413.82 165.42C1420 168.474 1424.98 172.31 1428.74 176.926C1432.57 181.472 1435.49 185.946 1437.48 190.349H1438.86V108.318H1484.14V326.5H1439.39V300.293H1437.48C1435.34 304.838 1432.33 309.348 1428.42 313.822C1424.58 318.226 1419.58 321.884 1413.4 324.795C1407.29 327.707 1399.83 329.163 1391.03 329.163ZM1405.41 293.048C1412.72 293.048 1418.9 291.06 1423.95 287.082C1429.06 283.034 1432.97 277.388 1435.66 270.143C1438.43 262.899 1439.82 254.412 1439.82 244.682C1439.82 234.952 1438.47 226.5 1435.77 219.327C1433.07 212.153 1429.17 206.614 1424.05 202.707C1418.94 198.801 1412.72 196.848 1405.41 196.848C1397.95 196.848 1391.67 198.872 1386.55 202.92C1381.44 206.969 1377.57 212.58 1374.94 219.753C1372.31 226.926 1371 235.236 1371 244.682C1371 254.199 1372.31 262.615 1374.94 269.93C1377.64 277.175 1381.51 282.857 1386.55 286.976C1391.67 291.024 1397.95 293.048 1405.41 293.048ZM1596.02 329.696C1579.19 329.696 1564.7 326.287 1552.56 319.469C1540.48 312.58 1531.18 302.849 1524.65 290.278C1518.11 277.636 1514.85 262.686 1514.85 245.428C1514.85 228.595 1518.11 213.822 1524.65 201.109C1531.18 188.396 1540.38 178.489 1552.24 171.386C1564.17 164.284 1578.16 160.733 1594.21 160.733C1605.01 160.733 1615.06 162.473 1624.36 165.953C1633.74 169.362 1641.91 174.511 1648.87 181.401C1655.9 188.29 1661.37 196.955 1665.27 207.395C1669.18 217.764 1671.13 229.909 1671.13 243.83V256.294H1532.96V228.169H1628.41C1628.41 221.635 1626.99 215.847 1624.15 210.804C1621.31 205.761 1617.37 201.82 1612.32 198.979C1607.35 196.067 1601.56 194.611 1594.96 194.611C1588.07 194.611 1581.96 196.209 1576.64 199.405C1571.38 202.53 1567.26 206.756 1564.28 212.082C1561.29 217.338 1559.77 223.197 1559.7 229.661V256.401C1559.7 264.497 1561.19 271.493 1564.17 277.388C1567.22 283.283 1571.52 287.828 1577.06 291.024C1582.6 294.22 1589.17 295.818 1596.77 295.818C1601.81 295.818 1606.43 295.108 1610.62 293.688C1614.81 292.267 1618.4 290.136 1621.38 287.295C1624.36 284.455 1626.64 280.974 1628.2 276.855L1670.17 279.625C1668.04 289.71 1663.67 298.517 1657.07 306.045C1650.53 313.503 1642.08 319.327 1631.71 323.517C1621.42 327.636 1609.52 329.696 1596.02 329.696Z" fill="black"/>
<defs>
<clipPath id="clip0_75_58">
<rect width="500" height="436" fill="white" transform="translate(0 8.5)"/>
</clipPath>
</defs>
</svg>
